<svg height="600.0" width="800.0">
<polygon points="408,441 545,503 515,314 " fill="rgb(144, 47, 95)" fill-opacity="0.5"/>
<polygon points="305,405 358,546 471,391 " fill="rgb(144, 47, 95)" fill-opacity="0.5"/>
<polygon points="259,308 197,445 386,415 " fill="rgb(144, 47, 95)" fill-opacity="0.5"/>
<polygon points="294,205 153,258 308,371 " fill="rgb(144, 47, 95)" fill-opacity="0.5"/>
<polygon points="392,159 254,97 285,286 " fill="rgb(144, 47, 95)" fill-opacity="0.5"/>
<polygon points="494,194 441,53 328,208 " fill="rgb(144, 47, 95)" fill-opacity="0.5"/>
<polygon points="541,292 603,154 414,185 " fill="rgb(144, 47, 95)" fill-opacity="0.5"/>
<polygon points="505,394 646,341 491,228 " fill="rgb(144, 47, 95)" fill-opacity="0.5"/>
<polygon points="799,483 709,338 646,519 " fill="rgb(57, 111, 73)" fill-opacity="0.5"/>
<polygon points="552,711 591,545 419,628 " fill="rgb(57, 111, 73)" fill-opacity="0.5"/>
<polygon points="217,699 362,609 181,546 " fill="rgb(57, 111, 73)" fill-opacity="0.5"/>
<polygon points="-11,452 154,491 71,319 " fill="rgb(57, 111, 73)" fill-opacity="0.5"/>
<polygon points="1,117 91,262 153,81 " fill="rgb(57, 111, 73)" fill-opacity="0.5"/>
<polygon points="247,-111 208,54 380,-28 " fill="rgb(57, 111, 73)" fill-opacity="0.5"/>
<polygon points="582,-99 437,-9 619,53 " fill="rgb(57, 111, 73)" fill-opacity="0.5"/>
<polygon points="811,147 645,108 728,280 " fill="rgb(57, 111, 73)" fill-opacity="0.5"/>
<polygon points="545,429 436,327 588,556 " fill="rgb(76, 91, 61)" fill-opacity="0.5"/>
<polygon points="411,493 406,344 351,613 " fill="rgb(76, 91, 61)" fill-opacity="0.5"/>
<polygon points="271,445 373,336 144,488 " fill="rgb(76, 91, 61)" fill-opacity="0.5"/>
<polygon points="206,311 355,306 86,251 " fill="rgb(76, 91, 61)" fill-opacity="0.5"/>
<polygon points="254,171 364,273 211,44 " fill="rgb(76, 91, 61)" fill-opacity="0.5"/>
<polygon points="388,106 393,255 448,-13 " fill="rgb(76, 91, 61)" fill-opacity="0.5"/>
<polygon points="529,154 427,264 656,111 " fill="rgb(76, 91, 61)" fill-opacity="0.5"/>
<polygon points="593,288 444,293 713,348 " fill="rgb(76, 91, 61)" fill-opacity="0.5"/>
<polygon points="715,593 513,334 724,377 " fill="rgb(36, 122, 230)" fill-opacity="0.5"/>
<polygon points="415,729 455,403 574,583 " fill="rgb(36, 122, 230)" fill-opacity="0.5"/>
<polygon points="107,615 366,413 323,624 " fill="rgb(36, 122, 230)" fill-opacity="0.5"/>
<polygon points="-29,315 296,355 116,474 " fill="rgb(36, 122, 230)" fill-opacity="0.5"/>
<polygon points="84,7 287,266 76,223 " fill="rgb(36, 122, 230)" fill-opacity="0.5"/>
<polygon points="384,-129 344,196 225,16 " fill="rgb(36, 122, 230)" fill-opacity="0.5"/>
<polygon points="693,-15 434,187 476,-24 " fill="rgb(36, 122, 230)" fill-opacity="0.5"/>
<polygon points="829,284 503,244 683,125 " fill="rgb(36, 122, 230)" fill-opacity="0.5"/>
<polygon points="503,396 401,581 632,476 " fill="rgb(65, 227, 232)" fill-opacity="0.5"/>
<polygon points="404,440 202,499 439,588 " fill="rgb(65, 227, 232)" fill-opacity="0.5"/>
<polygon points="304,403 119,301 224,532 " fill="rgb(65, 227, 232)" fill-opacity="0.5"/>
<polygon points="259,304 200,102 111,339 " fill="rgb(65, 227, 232)" fill-opacity="0.5"/>
<polygon points="297,204 398,19 167,124 " fill="rgb(65, 227, 232)" fill-opacity="0.5"/>
<polygon points="395,159 597,100 360,11 " fill="rgb(65, 227, 232)" fill-opacity="0.5"/>
<polygon points="496,197 681,298 576,67 " fill="rgb(65, 227, 232)" fill-opacity="0.5"/>
<polygon points="540,295 599,497 688,260 " fill="rgb(65, 227, 232)" fill-opacity="0.5"/>
<polygon points="728,424 635,600 643,595 " fill="rgb(250, 131, 127)" fill-opacity="0.5"/>
<polygon points="544,619 354,678 363,680 " fill="rgb(250, 131, 127)" fill-opacity="0.5"/>
<polygon points="276,628 100,535 105,543 " fill="rgb(250, 131, 127)" fill-opacity="0.5"/>
<polygon points="80,444 21,254 19,263 " fill="rgb(250, 131, 127)" fill-opacity="0.5"/>
<polygon points="72,176 164,0 156,5 " fill="rgb(250, 131, 127)" fill-opacity="0.5"/>
<polygon points="255,-19 445,-78 436,-80 " fill="rgb(250, 131, 127)" fill-opacity="0.5"/>
<polygon points="524,-28 700,64 695,56 " fill="rgb(250, 131, 127)" fill-opacity="0.5"/>
<polygon points="719,155 778,345 780,336 " fill="rgb(250, 131, 127)" fill-opacity="0.5"/>
<polygon points="482,536 733,397 739,594 " fill="rgb(69, 152, 43)" fill-opacity="0.5"/>
<polygon points="291,524 566,604 431,747 " fill="rgb(69, 152, 43)" fill-opacity="0.5"/>
<polygon points="164,382 303,633 106,639 " fill="rgb(69, 152, 43)" fill-opacity="0.5"/>
<polygon points="175,191 95,466 -47,331 " fill="rgb(69, 152, 43)" fill-opacity="0.5"/>
<polygon points="318,64 67,203 60,6 " fill="rgb(69, 152, 43)" fill-opacity="0.5"/>
<polygon points="508,75 233,-4 368,-147 " fill="rgb(69, 152, 43)" fill-opacity="0.5"/>
<polygon points="636,217 496,-33 694,-39 " fill="rgb(69, 152, 43)" fill-opacity="0.5"/>
<polygon points="624,408 704,133 847,268 " fill="rgb(69, 152, 43)" fill-opacity="0.5"/>
<polygon points="679,416 465,313 507,371 " fill="rgb(250, 66, 86)" fill-opacity="0.5"/>
<polygon points="515,579 436,355 425,425 " fill="rgb(250, 66, 86)" fill-opacity="0.5"/>
<polygon points="284,579 387,365 329,407 " fill="rgb(250, 66, 86)" fill-opacity="0.5"/>
<polygon points="120,415 344,336 274,325 " fill="rgb(250, 66, 86)" fill-opacity="0.5"/>
<polygon points="121,184 335,287 293,229 " fill="rgb(250, 66, 86)" fill-opacity="0.5"/>
<polygon points="284,20 363,244 374,174 " fill="rgb(250, 66, 86)" fill-opacity="0.5"/>
<polygon points="516,21 413,235 471,193 " fill="rgb(250, 66, 86)" fill-opacity="0.5"/>
<polygon points="679,184 455,263 525,274 " fill="rgb(250, 66, 86)" fill-opacity="0.5"/>
</svg>
