<svg width="640" height="640">
<rect x="0" y="0" width="75" height="75" style="fill:rgb(255,255,255); stroke-width:1;stroke:rgb(0,0,0)"/>
<rect x="0" y="75" width="75" height="75" style="fill:rgb(0,0,0); stroke-width:1;stroke:rgb(0,0,0)"/>
<rect x="0" y="150" width="75" height="75" style="fill:rgb(255,255,255); stroke-width:1;stroke:rgb(0,0,0)"/>
<rect x="0" y="225" width="75" height="75" style="fill:rgb(0,0,0); stroke-width:1;stroke:rgb(0,0,0)"/>
<rect x="0" y="300" width="75" height="75" style="fill:rgb(255,255,255); stroke-width:1;stroke:rgb(0,0,0)"/>
<rect x="0" y="375" width="75" height="75" style="fill:rgb(0,0,0); stroke-width:1;stroke:rgb(0,0,0)"/>
<rect x="0" y="450" width="75" height="75" style="fill:rgb(255,255,255); stroke-width:1;stroke:rgb(0,0,0)"/>
<rect x="0" y="525" width="75" height="75" style="fill:rgb(0,0,0); stroke-width:1;stroke:rgb(0,0,0)"/>
<rect x="75" y="0" width="75" height="75" style="fill:rgb(0,0,0); stroke-width:1;stroke:rgb(0,0,0)"/>
<rect x="75" y="75" width="75" height="75" style="fill:rgb(255,255,255); stroke-width:1;stroke:rgb(0,0,0)"/>
<rect x="75" y="150" width="75" height="75" style="fill:rgb(0,0,0); stroke-width:1;stroke:rgb(0,0,0)"/>
<rect x="75" y="225" width="75" height="75" style="fill:rgb(255,255,255); stroke-width:1;stroke:rgb(0,0,0)"/>
<rect x="75" y="300" width="75" height="75" style="fill:rgb(0,0,0); stroke-width:1;stroke:rgb(0,0,0)"/>
<rect x="75" y="375" width="75" height="75" style="fill:rgb(255,255,255); stroke-width:1;stroke:rgb(0,0,0)"/>
<rect x="75" y="450" width="75" height="75" style="fill:rgb(0,0,0); stroke-width:1;stroke:rgb(0,0,0)"/>
<rect x="75" y="525" width="75" height="75" style="fill:rgb(255,255,255); stroke-width:1;stroke:rgb(0,0,0)"/>
<rect x="150" y="0" width="75" height="75" style="fill:rgb(255,255,255); stroke-width:1;stroke:rgb(0,0,0)"/>
<rect x="150" y="75" width="75" height="75" style="fill:rgb(0,0,0); stroke-width:1;stroke:rgb(0,0,0)"/>
<rect x="150" y="150" width="75" height="75" style="fill:rgb(255,255,255); stroke-width:1;stroke:rgb(0,0,0)"/>
<rect x="150" y="225" width="75" height="75" style="fill:rgb(0,0,0); stroke-width:1;stroke:rgb(0,0,0)"/>
<rect x="150" y="300" width="75" height="75" style="fill:rgb(255,255,255); stroke-width:1;stroke:rgb(0,0,0)"/>
<rect x="150" y="375" width="75" height="75" style="fill:rgb(0,0,0); stroke-width:1;stroke:rgb(0,0,0)"/>
<rect x="150" y="450" width="75" height="75" style="fill:rgb(255,255,255); stroke-width:1;stroke:rgb(0,0,0)"/>
<rect x="150" y="525" width="75" height="75" style="fill:rgb(0,0,0); stroke-width:1;stroke:rgb(0,0,0)"/>
<rect x="225" y="0" width="75" height="75" style="fill:rgb(0,0,0); stroke-width:1;stroke:rgb(0,0,0)"/>
<rect x="225" y="75" width="75" height="75" style="fill:rgb(255,255,255); stroke-width:1;stroke:rgb(0,0,0)"/>
<rect x="225" y="150" width="75" height="75" style="fill:rgb(0,0,0); stroke-width:1;stroke:rgb(0,0,0)"/>
<rect x="225" y="225" width="75" height="75" style="fill:rgb(255,255,255); stroke-width:1;stroke:rgb(0,0,0)"/>
<rect x="225" y="300" width="75" height="75" style="fill:rgb(0,0,0); stroke-width:1;stroke:rgb(0,0,0)"/>
<rect x="225" y="375" width="75" height="75" style="fill:rgb(255,255,255); stroke-width:1;stroke:rgb(0,0,0)"/>
<rect x="225" y="450" width="75" height="75" style="fill:rgb(0,0,0); stroke-width:1;stroke:rgb(0,0,0)"/>
<rect x="225" y="525" width="75" height="75" style="fill:rgb(255,255,255); stroke-width:1;stroke:rgb(0,0,0)"/>
<rect x="300" y="0" width="75" height="75" style="fill:rgb(255,255,255); stroke-width:1;stroke:rgb(0,0,0)"/>
<rect x="300" y="75" width="75" height="75" style="fill:rgb(0,0,0); stroke-width:1;stroke:rgb(0,0,0)"/>
<rect x="300" y="150" width="75" height="75" style="fill:rgb(255,255,255); stroke-width:1;stroke:rgb(0,0,0)"/>
<rect x="300" y="225" width="75" height="75" style="fill:rgb(0,0,0); stroke-width:1;stroke:rgb(0,0,0)"/>
<rect x="300" y="300" width="75" height="75" style="fill:rgb(255,255,255); stroke-width:1;stroke:rgb(0,0,0)"/>
<rect x="300" y="375" width="75" height="75" style="fill:rgb(0,0,0); stroke-width:1;stroke:rgb(0,0,0)"/>
<rect x="300" y="450" width="75" height="75" style="fill:rgb(255,255,255); stroke-width:1;stroke:rgb(0,0,0)"/>
<rect x="300" y="525" width="75" height="75" style="fill:rgb(0,0,0); stroke-width:1;stroke:rgb(0,0,0)"/>
<rect x="375" y="0" width="75" height="75" style="fill:rgb(0,0,0); stroke-width:1;stroke:rgb(0,0,0)"/>
<rect x="375" y="75" width="75" height="75" style="fill:rgb(255,255,255); stroke-width:1;stroke:rgb(0,0,0)"/>
<rect x="375" y="150" width="75" height="75" style="fill:rgb(0,0,0); stroke-width:1;stroke:rgb(0,0,0)"/>
<rect x="375" y="225" width="75" height="75" style="fill:rgb(255,255,255); stroke-width:1;stroke:rgb(0,0,0)"/>
<rect x="375" y="300" width="75" height="75" style="fill:rgb(0,0,0); stroke-width:1;stroke:rgb(0,0,0)"/>
<rect x="375" y="375" width="75" height="75" style="fill:rgb(255,255,255); stroke-width:1;stroke:rgb(0,0,0)"/>
<rect x="375" y="450" width="75" height="75" style="fill:rgb(0,0,0); stroke-width:1;stroke:rgb(0,0,0)"/>
<rect x="375" y="525" width="75" height="75" style="fill:rgb(255,255,255); stroke-width:1;stroke:rgb(0,0,0)"/>
<rect x="450" y="0" width="75" height="75" style="fill:rgb(255,255,255); stroke-width:1;stroke:rgb(0,0,0)"/>
<rect x="450" y="75" width="75" height="75" style="fill:rgb(0,0,0); stroke-width:1;stroke:rgb(0,0,0)"/>
<rect x="450" y="150" width="75" height="75" style="fill:rgb(255,255,255); stroke-width:1;stroke:rgb(0,0,0)"/>
<rect x="450" y="225" width="75" height="75" style="fill:rgb(0,0,0); stroke-width:1;stroke:rgb(0,0,0)"/>
<rect x="450" y="300" width="75" height="75" style="fill:rgb(255,255,255); stroke-width:1;stroke:rgb(0,0,0)"/>
<rect x="450" y="375" width="75" height="75" style="fill:rgb(0,0,0); stroke-width:1;stroke:rgb(0,0,0)"/>
<rect x="450" y="450" width="75" height="75" style="fill:rgb(255,255,255); stroke-width:1;stroke:rgb(0,0,0)"/>
<rect x="450" y="525" width="75" height="75" style="fill:rgb(0,0,0); stroke-width:1;stroke:rgb(0,0,0)"/>
<rect x="525" y="0" width="75" height="75" style="fill:rgb(0,0,0); stroke-width:1;stroke:rgb(0,0,0)"/>
<rect x="525" y="75" width="75" height="75" style="fill:rgb(255,255,255); stroke-width:1;stroke:rgb(0,0,0)"/>
<rect x="525" y="150" width="75" height="75" style="fill:rgb(0,0,0); stroke-width:1;stroke:rgb(0,0,0)"/>
<rect x="525" y="225" width="75" height="75" style="fill:rgb(255,255,255); stroke-width:1;stroke:rgb(0,0,0)"/>
<rect x="525" y="300" width="75" height="75" style="fill:rgb(0,0,0); stroke-width:1;stroke:rgb(0,0,0)"/>
<rect x="525" y="375" width="75" height="75" style="fill:rgb(255,255,255); stroke-width:1;stroke:rgb(0,0,0)"/>
<rect x="525" y="450" width="75" height="75" style="fill:rgb(0,0,0); stroke-width:1;stroke:rgb(0,0,0)"/>
<rect x="525" y="525" width="75" height="75" style="fill:rgb(255,255,255); stroke-width:1;stroke:rgb(0,0,0)"/>
</svg>
